<svg width="164" height="35" viewBox="0 0 164 35" fill="none" xmlns="http://www.w3.org/2000/svg">
<path fill-rule="evenodd" clip-rule="evenodd" d="M6.3104 8.70484C9.05074 5.20262 13.439 2.93368 18.3849 2.93368C23.3599 2.93368 27.7704 5.2294 30.5075 8.76674C30.3909 8.88056 30.2849 8.99853 30.1888 9.11634C29.6874 9.73322 29.3102 10.5278 29.008 11.3347C28.3995 12.9575 27.9353 15.0772 27.5055 17.0622L27.4673 17.2407C27.0384 19.222 26.6399 21.0647 26.1579 22.4325C25.9414 23.0471 25.7361 23.4815 25.554 23.7598C25.364 23.4793 25.1484 23.0396 24.9203 22.4162C24.4048 21.0091 23.9713 19.0951 23.5118 17.0514L23.4969 16.9845V16.9844C23.0552 15.0214 22.5868 12.9387 22.0026 11.3443C21.7092 10.5435 21.3492 9.75684 20.8783 9.14569C20.4161 8.54593 19.6468 7.86904 18.5216 7.86904C17.4035 7.86904 16.6306 8.53858 16.1618 9.13162C15.6818 9.73883 15.3075 10.5222 14.9993 11.3234C14.3784 12.937 13.8708 15.0476 13.3984 17.0353L13.3497 17.2407C12.8819 19.2097 12.4446 21.0505 11.9482 22.421C11.7587 22.9444 11.5799 23.3426 11.4181 23.6271C11.2599 23.3439 11.0855 22.9484 10.9012 22.4294C10.425 21.0881 10.0079 19.2988 9.55983 17.377L9.4814 17.0406C9.01719 15.0517 8.51356 12.9373 7.88388 11.3187C7.57103 10.5145 7.18836 9.72718 6.69318 9.11713C6.58104 8.97905 6.45362 8.83888 6.3104 8.70484ZM4.65187 11.394C4.78239 11.6389 4.92046 11.9424 5.06321 12.3093C5.60826 13.7104 6.07 15.622 6.54549 17.6593L6.63805 18.0562C7.07097 19.9151 7.52131 21.8487 8.05177 23.3426C8.33391 24.1372 8.67463 24.9154 9.1128 25.5202C9.52718 26.0922 10.2706 26.8311 11.4137 26.8311C12.5534 26.8311 13.2986 26.0958 13.7158 25.5264C14.1577 24.9229 14.504 24.1456 14.7918 23.3506C15.3436 21.8271 15.8134 19.8481 16.263 17.9542V17.9541L16.3318 17.6647C16.8162 15.6262 17.2826 13.7107 17.8236 12.3046C18.0743 11.6531 18.309 11.1993 18.5132 10.9177C18.7069 11.1969 18.928 11.6435 19.1627 12.2837C19.6782 13.6909 20.1113 15.6049 20.571 17.6485L20.586 17.7155C21.0276 19.6785 21.496 21.7613 22.0801 23.3554C22.3736 24.1566 22.7336 24.9433 23.2045 25.5543C23.6668 26.1542 24.436 26.8311 25.561 26.8311C26.692 26.8311 27.4584 26.148 27.9152 25.5428C28.379 24.9287 28.7277 24.1394 29.0095 23.3395C29.5509 21.8031 29.9814 19.8096 30.392 17.9131V17.9131L30.4508 17.6378C30.8928 15.5966 31.317 13.6901 31.841 12.2934C31.9544 11.9895 32.0662 11.7304 32.1728 11.5128C32.9755 13.2608 33.4207 15.1911 33.4207 17.22C33.4207 25.11 26.6892 31.5065 18.3849 31.5065C10.0807 31.5065 3.34888 25.11 3.34888 17.22C3.34888 15.145 3.8145 13.1732 4.65187 11.394ZM18.3849 0.076416C8.4199 0.076416 0.341675 7.75187 0.341675 17.22C0.341675 26.6881 8.4199 34.3635 18.3849 34.3635C28.3501 34.3635 36.4279 26.6881 36.4279 17.22C36.4279 7.75187 28.3501 0.076416 18.3849 0.076416ZM18.7286 10.6785C18.7286 10.6789 18.7251 10.6816 18.7181 10.6855C18.7251 10.6802 18.7286 10.6782 18.7286 10.6785ZM18.313 10.6805C18.306 10.6764 18.3026 10.6736 18.3026 10.6733C18.3026 10.6729 18.3061 10.675 18.313 10.6805ZM25.3324 24.031C25.3324 24.031 25.3356 24.0279 25.3421 24.0239C25.3356 24.0292 25.3324 24.0314 25.3324 24.031ZM25.7696 24.0195C25.7766 24.0235 25.7803 24.0261 25.7803 24.0266C25.7803 24.027 25.7766 24.0248 25.7696 24.0195ZM11.1055 24.0567C11.1054 24.0562 11.1098 24.0522 11.1185 24.0465C11.1098 24.054 11.1055 24.0571 11.1055 24.0567ZM11.7145 24.0491C11.7231 24.0549 11.7274 24.0589 11.7274 24.0593C11.7273 24.0598 11.723 24.0571 11.7145 24.0491Z" fill="#81818B"/>
<path d="M46.3909 27.3694L42.0155 13.1488H45.848L48.4431 23.3842L51.4603 13.1488H55.7453L58.763 23.3842L61.388 13.1488H65.2205L60.8147 27.3694H56.8016L53.6028 16.7326L50.4045 27.3694H46.3909Z" fill="#81818B"/>
<path d="M70.8438 27.7137C69.5565 27.7137 68.5002 27.5221 67.6754 27.1398C66.8512 26.7386 66.2375 26.213 65.8348 25.5631C65.4326 24.9131 65.2316 24.1965 65.2316 23.4129C65.2316 22.0941 65.7744 21.0237 66.8606 20.2018C67.9469 19.3799 69.577 18.9689 71.7494 18.9689H75.5515V18.6249C75.5515 17.6501 75.2596 16.9334 74.6763 16.4746C74.093 16.0159 73.3685 15.7865 72.5039 15.7865C71.719 15.7865 71.0349 15.9681 70.4516 16.3313C69.8684 16.6753 69.5061 17.1914 69.3654 17.8795H65.5933C65.6941 16.8474 66.0563 15.949 66.6795 15.1844C67.3237 14.4199 68.1485 13.8369 69.1538 13.4355C70.1603 13.0151 71.2864 12.8048 72.5338 12.8048C74.6663 12.8048 76.3458 13.3113 77.5733 14.3243C78.8002 15.3374 79.4139 16.7709 79.4139 18.6249V27.3695H76.1243L75.7625 25.076C75.32 25.8405 74.6963 26.4709 73.892 26.9682C73.1071 27.465 72.0912 27.7137 70.8438 27.7137ZM71.719 24.8464C72.8257 24.8464 73.6804 24.5022 74.2836 23.8142C74.9073 23.1263 75.3 22.2755 75.4612 21.2626H72.1715C71.1457 21.2626 70.4117 21.4442 69.9686 21.8073C69.5266 22.1512 69.305 22.5816 69.305 23.0975C69.305 23.6518 69.5266 24.0819 69.9686 24.3876C70.4117 24.6933 70.9945 24.8464 71.719 24.8464Z" fill="#81818B"/>
<path d="M85.4939 27.3694L80.0024 13.1488H84.0455L87.8475 23.9004L91.6496 13.1488H95.6931L90.1712 27.3694H85.4939Z" fill="#81818B"/>
<path d="M103.457 27.7137C101.949 27.7137 100.611 27.4075 99.4442 26.7961C98.2776 26.1842 97.3625 25.3242 96.6984 24.2155C96.0343 23.1072 95.703 21.8264 95.703 20.3738C95.703 18.9021 96.0248 17.5928 96.668 16.4459C97.3321 15.2991 98.2372 14.4104 99.3843 13.7796C100.55 13.1297 101.918 12.8048 103.488 12.8048C104.956 12.8048 106.254 13.1106 107.381 13.7222C108.507 14.3339 109.382 15.1749 110.006 16.2452C110.649 17.2965 110.972 18.472 110.972 19.7717C110.972 19.982 110.961 20.2018 110.941 20.4311C110.941 20.6605 110.931 20.8994 110.911 21.1479H99.535C99.6153 22.2564 100.018 23.1263 100.742 23.7572C101.486 24.3876 102.382 24.703 103.428 24.703C104.212 24.703 104.866 24.5407 105.389 24.2155C105.932 23.8717 106.334 23.432 106.596 22.8966H110.519C110.237 23.7952 109.764 24.6172 109.1 25.3627C108.456 26.0887 107.652 26.662 106.686 27.0828C105.741 27.5031 104.664 27.7137 103.457 27.7137ZM103.488 15.7865C102.543 15.7865 101.707 16.0446 100.983 16.5606C100.259 17.0576 99.7964 17.8221 99.5948 18.8543H107.048C106.988 17.9177 106.626 17.1722 105.962 16.6179C105.298 16.0637 104.474 15.7865 103.488 15.7865Z" fill="#81818B"/>
<path d="M113.013 27.3694V6.72656H116.875V27.3694H113.013Z" fill="#81818B"/>
<path d="M126.886 27.7137C125.378 27.7137 124.04 27.4075 122.873 26.7961C121.707 26.1842 120.792 25.3242 120.128 24.2155C119.463 23.1072 119.132 21.8264 119.132 20.3738C119.132 18.9021 119.454 17.5928 120.097 16.4459C120.761 15.2991 121.666 14.4104 122.813 13.7796C123.98 13.1297 125.348 12.8048 126.917 12.8048C128.385 12.8048 129.683 13.1106 130.81 13.7222C131.936 14.3339 132.812 15.1749 133.435 16.2452C134.078 17.2965 134.401 18.472 134.401 19.7717C134.401 19.982 134.39 20.2018 134.37 20.4311C134.37 20.6605 134.36 20.8994 134.34 21.1479H122.964C123.044 22.2564 123.447 23.1263 124.171 23.7572C124.915 24.3876 125.811 24.703 126.857 24.703C127.641 24.703 128.295 24.5407 128.818 24.2155C129.361 23.8717 129.763 23.432 130.025 22.8966H133.948C133.666 23.7952 133.193 24.6172 132.53 25.3627C131.885 26.0887 131.081 26.662 130.115 27.0828C129.17 27.5031 128.094 27.7137 126.886 27.7137ZM126.917 15.7865C125.972 15.7865 125.137 16.0446 124.412 16.5606C123.688 17.0576 123.226 17.8221 123.024 18.8543H130.477C130.417 17.9177 130.055 17.1722 129.391 16.6179C128.727 16.0637 127.903 15.7865 126.917 15.7865Z" fill="#81818B"/>
<path d="M142.628 27.7137C141.3 27.7137 140.133 27.5128 139.128 27.1115C138.121 26.6908 137.317 26.1174 136.713 25.391C136.11 24.665 135.748 23.8239 135.627 22.8683H139.52C139.64 23.4222 139.963 23.9005 140.486 24.3017C141.028 24.684 141.722 24.8751 142.567 24.8751C143.412 24.8751 144.026 24.7128 144.408 24.3876C144.811 24.0629 145.012 23.6899 145.012 23.2696C145.012 22.6578 144.73 22.2467 144.167 22.0366C143.604 21.8073 142.819 21.5875 141.813 21.3773C141.17 21.2435 140.516 21.081 139.852 20.8899C139.188 20.6988 138.575 20.4598 138.011 20.1731C137.468 19.8673 137.025 19.485 136.683 19.0263C136.341 18.5484 136.171 17.9655 136.171 17.2774C136.171 16.0159 136.693 14.9551 137.74 14.095C138.806 13.2348 140.294 12.8048 142.205 12.8048C143.976 12.8048 145.384 13.1966 146.43 13.9803C147.496 14.764 148.13 15.8439 148.331 17.2201H144.68C144.458 16.1688 143.623 15.6432 142.176 15.6432C141.451 15.6432 140.888 15.777 140.486 16.0446C140.103 16.3122 139.912 16.6466 139.912 17.048C139.912 17.4685 140.204 17.803 140.787 18.0515C141.371 18.3 142.145 18.5293 143.111 18.7396C144.156 18.9689 145.112 19.227 145.977 19.5137C146.862 19.7813 147.566 20.1922 148.09 20.7465C148.613 21.2817 148.874 22.0556 148.874 23.0687C148.894 23.9482 148.652 24.7411 148.15 25.4485C147.647 26.1555 146.923 26.7098 145.977 27.1115C145.032 27.5128 143.915 27.7137 142.628 27.7137Z" fill="#81818B"/>
<path d="M157.275 27.7137C155.947 27.7137 154.78 27.5128 153.774 27.1115C152.768 26.6908 151.964 26.1174 151.36 25.391C150.757 24.665 150.394 23.8239 150.274 22.8683H154.167C154.287 23.4222 154.609 23.9005 155.132 24.3017C155.675 24.684 156.369 24.8751 157.214 24.8751C158.059 24.8751 158.673 24.7128 159.055 24.3876C159.457 24.0629 159.659 23.6899 159.659 23.2696C159.659 22.6578 159.377 22.2467 158.813 22.0366C158.25 21.8073 157.466 21.5875 156.46 21.3773C155.816 21.2435 155.162 21.081 154.498 20.8899C153.835 20.6988 153.221 20.4598 152.658 20.1731C152.115 19.8673 151.672 19.485 151.33 19.0263C150.988 18.5484 150.817 17.9655 150.817 17.2774C150.817 16.0159 151.34 14.9551 152.386 14.095C153.453 13.2348 154.941 12.8048 156.852 12.8048C158.622 12.8048 160.03 13.1966 161.077 13.9803C162.142 14.764 162.776 15.8439 162.978 17.2201H159.326C159.105 16.1688 158.27 15.6432 156.822 15.6432C156.097 15.6432 155.534 15.777 155.132 16.0446C154.75 16.3122 154.559 16.6466 154.559 17.048C154.559 17.4685 154.85 17.803 155.434 18.0515C156.017 18.3 156.792 18.5293 157.757 18.7396C158.803 18.9689 159.759 19.227 160.624 19.5137C161.509 19.7813 162.213 20.1922 162.736 20.7465C163.259 21.2817 163.521 22.0556 163.521 23.0687C163.541 23.9482 163.299 24.7411 162.796 25.4485C162.294 26.1555 161.57 26.7098 160.624 27.1115C159.678 27.5128 158.562 27.7137 157.275 27.7137Z" fill="#81818B"/>
</svg>
