<?xml version="1.0" encoding="utf-8"?>
<!-- Generator: Adobe Illustrator 25.0.0, SVG Export Plug-In . SVG Version: 6.00 Build 0)  -->
<svg version="1.1" id="Слой_1" xmlns="http://www.w3.org/2000/svg" xmlns:xlink="http://www.w3.org/1999/xlink" x="0px" y="0px"
	 viewBox="0 0 1938.2 686.7" style="enable-background:new 0 0 1938.2 686.7;" xml:space="preserve">
<style type="text/css">
	.st0{display:none;fill:#80B4FF;}
	.st1{fill:#65C7EA;}
	.st2{fill:#FFFFFF;}
</style>
<rect x="-30.9" y="-656.6" class="st0" width="2000" height="2000"/>
<g>
	<g>
		<path class="st1" d="M721.8,686.7c-12,0-22.7-0.1-33.4,0c-45.5,0.4-85.1-14.5-118.6-45.4c-27.3-25.3-43.6-56.7-50-93
			c-2.5-14-3.2-28.5-3.2-42.7c-0.3-105.7-0.2-211.3-0.1-317c0-28.9,0.2-58.4,13.5-84.8C558.3,47.4,601.3,9.5,666.4,2.4
			C685.7,0.3,705.3,0,724.7,0c100.8,0,201.7,1.1,302.5,0.5c57.4-0.3,102.8,22.6,139.4,65.2c21,24.5,32.3,53.9,34.6,85.5
			c2.7,37.9,2.3,76.1,2.9,114.2c0.3,17.8-0.2,35.6-0.9,53.4c-0.2,4.1-2.8,8.2-4.4,12.3c-1.2,3.2-2.9,6.3-3.6,9.6
			c-11.9,54.4-23.7,108.8-35.6,163.1c-0.3,1.4-0.9,2.8-1.4,4.2c-0.7,0.1-1.5,0.3-2.2,0.4c-2.8-9.3-6-18.4-8.4-27.8
			c-17.1-65.5-33.9-131.1-51-196.7c-13.3-51-26.9-101.9-40.1-152.9c-1.3-5.1-4.1-6-8.7-6c-37.6,0.1-75.2,0-112.7-0.1
			c-8.9,0-17.9-0.4-26.8,0.1c-2.3,0.1-5.8,2.9-6.3,5c-15.1,59.1-29.9,118.3-44.7,177.5c-15.1,60.2-30.5,120.4-45.5,180.7
			c-2.5,10.2-3.8,20.7-5.7,31c-0.5,2.5-1.3,4.9-3.5,7.2c-1.8-11-3.3-22-5.6-32.8c-13.6-63.4-27.4-126.7-41.2-190.1
			c-11.6-53.3-23.2-106.7-34.9-160c-4.1-18.5-4.2-18.5-22.7-18.6c-38.1-0.1-76.2,0-114.2,0C629.8,311.5,675.6,498.1,721.8,686.7z"/>
		<path class="st2" d="M154.4,199.5c-26.7,0-52.1,0.1-77.5,0c-17.6-0.1-35.2,0-52.7-0.7C8.7,198.2,3.1,192.5,2,177.1
			c-0.9-12.1-1.5-24.2-1.8-36.4c-0.3-17.3-0.3-34.6-0.1-51.9C0.3,68.6,10,58.1,30.3,56.2c5.6-0.5,11.3-0.4,17-0.4
			c125.7,0.1,251.3,0.2,377,0.4c8.1,0,16.2,0.7,24.3,1.5c9.2,0.8,17.9,9.1,19.4,18.9c1.3,8.2,2.1,16.6,2,25
			c-0.2,24.6-0.2,49.2-1.9,73.7c-1.2,17.6-9.6,24-27.1,24.1c-39.2,0.2-78.4,0.3-117.6,0c-6.5-0.1-7.7,2.1-7.6,7.8
			c0.5,40.8,1.1,81.6,1,122.4c-0.2,88.9-0.7,177.9-1.1,266.8c0,9.2-0.7,18.1-7.3,25.7c-4.8,5.6-10.3,8.5-17.5,8.5
			c-36.8,0-73.6,0.3-110.3,0c-16.1-0.1-25.2-10.2-26-27.9c-0.3-6.7-0.2-13.5-0.2-20.3c0-123.8,0-247.6,0-371.4
			C154.4,207.7,154.4,204.5,154.4,199.5z"/>
		<path class="st2" d="M1415.7,343.2c0,70.3,0.2,140.5-0.1,210.8c-0.1,19.7-2,39.4-2.8,59c-0.4,9-5.3,13.8-13.5,15.7
			c-4.4,1-9,1.8-13.6,1.9c-33.5,0.1-67.1,0.1-100.6,0c-4.3,0-8.6-0.6-12.8-1.4c-11.3-2.2-16.4-7.6-17.5-19
			c-0.8-7.8-1.4-15.6-1.4-23.4c-0.1-159.7-0.1-319.5,0-479.2c0-7.8,0.8-15.6,1.2-23.5c0.9-17.3,5.6-24.9,22.7-25.6
			c38.6-1.4,77.3-1.2,115.8,0.2c15.8,0.6,20.9,8.8,21.3,25.9c0.8,34.8,1.5,69.7,1.7,104.6c0.3,51.3,0.1,102.7,0.1,154
			C1416,343.2,1415.8,343.2,1415.7,343.2z"/>
		<path class="st1" d="M878.2,685.6c34.1-127.5,67.9-254,101.9-381.4c2,5.6,4.2,10.9,5.7,16.3c24.5,91.5,49,183,73.5,274.5
			c7.1,26.5,14.1,53,21.4,79.5c1.5,5.4,1,8.1-5.3,8.5c-15.3,0.9-30.6,3.2-45.9,3.3c-47.6,0.4-95.1,0.1-142.7,0.1
			C884.3,686.2,881.9,685.9,878.2,685.6z"/>
	</g>
	<path class="st2" d="M1938.2,116.4c0-11.6-0.7-23.2-1.4-34.8c-0.8-13.1-9.6-23.6-22.7-24c-33.7-1-67.5-1.6-101.3-0.7
		c-18,0.5-25.9,10.4-26.1,28.6c-0.5,46.7-0.9,93.5-0.9,140.3c-0.1,60.3,8.9,119.1,28.2,176.3c2.9,8.6,4.8,17.6,7.1,26.4
		c-0.8,0.3-1.6,0.5-2.4,0.8c-3.9-9.3-8.1-18.5-11.7-28c-15-39.6-29.8-79.3-52.6-115.2c-32-50.4-64.3-100.5-96.5-150.7
		c-13.5-21.2-27-42.3-40.5-63.5c-2.2-5-5.4-9.6-11.1-12.3c-3.3-1.6-7.1-2.5-11.2-2.6c-37.8-1-75.6-1.6-113.3-0.7
		c-9.2,0.2-16,2.4-20.7,6.4c-1.6,1.3-2.8,2.8-3.9,4.3c-1.6,2.2-2.7,4.7-3.4,7.5c-1.1,4.1-1.2,7.9-1.3,10.4c0,0.5,0,0.9,0,1.4
		c-0.6,12.5-1,25.1-1,37.6c0,15,0.1,30,0.2,45c-0.2,32.5-0.2,56.3-0.2,56.3c0.1-0.1,0.3-0.1,0.4-0.2c0,12.3,0.1,24.5,0.1,36.8
		c0,91.4-0.3,182.7-0.3,274.1c0,21.6,0.3,43.2,0.9,64.9c0.5,20.3,10,29.6,30.1,29.8c30.3,0.2,60.6,0.2,90.9-0.1
		c20.3-0.2,30.5-10.4,30.6-30.6c0.2-49.7-0.2-99.4,0.1-149.2c0.3-54.3-7.5-107.5-19.1-160.4c-2.4-11-4.1-22.2-6.1-33.2
		c1-0.2,1.9-0.5,2.9-0.7c1.7,5.2,3.6,10.3,5.2,15.6c15,51.4,33.9,101.1,63.1,146.3c24.3,37.6,48.9,75.1,73.4,112.6
		c18.1,27.8,36.4,55.5,54.6,83.3c6,9.2,13.3,16.2,25.3,16.2c36,0,71.9,0.5,107.9,0c15.5-0.2,24.2-9.7,25.4-24.9
		c0.7-9.4,1.3-18.9,1.4-28.3C1938.3,423.5,1938.3,270,1938.2,116.4z"/>
</g>
</svg>
