<svg width="36.000000" height="36.000000" viewBox="0 0 36 36" fill="none" xmlns="http://www.w3.org/2000/svg" xmlns:xlink="http://www.w3.org/1999/xlink">
	<desc>
			Created with Pixso.
	</desc>
	<defs/>
	<path id="Vector" d="M23.359 13.6353C23.9874 13.2275 24.4035 12.6714 24.6072 11.9639C23.9959 12.3062 23.387 12.5415 22.7788 12.6714C22.2321 12.0498 21.5399 11.7344 20.71 11.7344C19.8988 11.7344 19.2137 12.0352 18.6544 12.6201C18.0984 13.2095 17.8176 13.9253 17.8176 14.7612C17.8176 15.0151 17.848 15.2422 17.9086 15.4346C15.5163 15.3481 13.5362 14.2993 11.976 12.2808C11.7116 12.7749 11.5794 13.2778 11.5794 13.7979C11.5794 14.8672 12.0064 15.7148 12.8588 16.3369C12.3727 16.2935 11.9442 16.1636 11.5794 15.9507C11.5794 16.7139 11.7917 17.3516 12.2172 17.9131C12.6441 18.4688 13.1924 18.8228 13.8621 18.9741C13.6194 19.04 13.3635 19.0713 13.1006 19.0713C12.858 19.0713 12.6861 19.0498 12.5843 19.0029C12.7631 19.625 13.1006 20.1299 13.5883 20.5161C14.0744 20.9038 14.6336 21.1084 15.262 21.1265C14.226 21.9854 13.0416 22.4102 11.7015 22.4102C11.3733 22.4102 11.1408 22.4053 11 22.3789C12.3198 23.2847 13.789 23.7344 15.4144 23.7344C17.078 23.7344 18.5479 23.2891 19.8273 22.3979C21.1067 21.5122 22.0508 20.4189 22.6575 19.1318C23.2672 17.8467 23.569 16.5088 23.569 15.1113L23.569 14.7266C24.1585 14.2583 24.6353 13.7305 25 13.1479C24.4711 13.3887 23.9244 13.5522 23.359 13.6353Z" fill="#75757F" fill-opacity="1.000000" fill-rule="nonzero"/>
	<rect id="a#w-node-_0dfbe7a0-261a-0002-65c5-22e86775eb2b-6775eb1b" rx="9.000000" width="35.000000" height="35.000000" transform="translate(0.500000 0.500000)" stroke="#81818B" stroke-opacity="0.900000" stroke-width="1.000000"/>
</svg>
